<?xml version="1.0" encoding="UTF-8" standalone="no"?>
<!-- Created with Inkscape (http://www.inkscape.org/) -->

<svg
   width="179.55748mm"
   height="45.788059mm"
   viewBox="0 0 179.55747 45.788059"
   version="1.1"
   id="svg1"
   inkscape:version="1.3 (0e150ed6c4, 2023-07-21)"
   sodipodi:docname="logo01.svg"
   xml:space="preserve"
   inkscape:export-filename="logo01.svg"
   inkscape:export-xdpi="96"
   inkscape:export-ydpi="96"
   xmlns:inkscape="http://www.inkscape.org/namespaces/inkscape"
   xmlns:sodipodi="http://sodipodi.sourceforge.net/DTD/sodipodi-0.dtd"
   xmlns="http://www.w3.org/2000/svg"
   xmlns:svg="http://www.w3.org/2000/svg"><sodipodi:namedview
     id="namedview1"
     pagecolor="#505050"
     bordercolor="#eeeeee"
     borderopacity="1"
     inkscape:showpageshadow="0"
     inkscape:pageopacity="0"
     inkscape:pagecheckerboard="0"
     inkscape:deskcolor="#505050"
     inkscape:document-units="mm"
     inkscape:zoom="1.4142136"
     inkscape:cx="275.41809"
     inkscape:cy="166.52365"
     inkscape:window-width="1920"
     inkscape:window-height="1009"
     inkscape:window-x="-8"
     inkscape:window-y="-8"
     inkscape:window-maximized="1"
     inkscape:current-layer="layer1"
     inkscape:export-bgcolor="#ffffff00" /><defs
     id="defs1" /><g
     inkscape:label="Layer 1"
     inkscape:groupmode="layer"
     id="layer1"
     transform="translate(0.05479715)"><path
       style="font-weight:600;font-size:40px;line-height:1.25;font-family:Inter;-inkscape-font-specification:'Inter Semi-Bold';letter-spacing:-3.16717px;word-spacing:0px;white-space:pre;fill:#ffffff;stroke-width:1.07491"
       d="M 27.509916,21.837082 V 35.5788 H 21.982685 V 12.126272 h 5.282922 v 3.985101 h 0.274836 q 0.809238,-1.969646 2.580383,-3.130055 1.786427,-1.160409 4.412631,-1.160409 2.42769,0 4.229386,1.038255 1.816966,1.038265 2.809412,3.0079 1.007727,1.969659 0.99247,4.77907 V 35.5788 H 37.037494 V 21.50118 q 0,-2.351367 -1.221486,-3.679726 -1.206217,-1.328372 -3.343814,-1.328372 -1.450514,0 -2.580395,0.641276 -1.114601,0.626018 -1.755889,1.816966 -0.625994,1.190959 -0.625994,2.885758 z"
       id="path9" /><path
       style="font-weight:600;font-size:40px;line-height:1.25;font-family:Inter;-inkscape-font-specification:'Inter Semi-Bold';letter-spacing:-3.16717px;word-spacing:0px;white-space:pre;fill:#ffffff;stroke-width:1.07491"
       d="m 19.524192,18.325317 -5.038624,0.54966 q -0.213771,-0.76343 -0.748173,-1.435244 -0.519121,-0.671815 -1.404694,-1.084063 -0.885584,-0.412247 -2.168148,-0.412247 -1.7253376,0 -2.9010273,0.748149 -1.1604086,0.748161 -1.1451393,1.93912 -0.015269,1.022984 0.7481608,1.66426 0.7786994,0.641287 2.5651144,1.053547 l 4.0003594,0.855034 q 3.328556,0.717611 4.947032,2.275021 1.633722,1.557387 1.649003,4.076706 -0.01527,2.213932 -1.297832,3.908754 -1.267294,1.679542 -3.527046,2.626192 -2.25974,0.94665 -5.191306,0.94665 -4.3057452,0 -6.9319368,-1.801696 -2.62619162,-1.816953 -3.13005527,-5.053894 L 5.339687,28.662133 q 0.3664398,1.587938 1.5573988,2.397176 1.1909473,0.809226 3.0995167,0.809226 1.9696465,0 3.1605945,-0.809226 1.206216,-0.809238 1.206216,-2.000197 0,-1.007716 -0.778699,-1.664261 -0.76343,-0.656557 -2.381895,-1.007727 L 7.2024602,25.547347 Q 3.828096,24.844994 2.2096316,23.180722 0.59116734,21.50118 0.60643665,18.936054 0.59116735,16.767918 1.7821145,15.179993 2.9883193,13.576786 5.1259284,12.706482 7.278795,11.820909 10.088218,11.820909 q 4.122514,0 6.489139,1.755877 2.381895,1.755888 2.946835,4.748531 z"
       id="path5" /><path
       style="font-weight:600;font-size:40px;line-height:1.25;font-family:Inter;-inkscape-font-specification:'Inter Semi-Bold';letter-spacing:-3.16717px;white-space:pre;fill:#ffffff;stroke-width:1.07491"
       d="M 72.337988,35.5788 65.711426,12.126272 h 5.634104 l 4.122513,16.490053 h 0.213759 l 4.214117,-16.490053 h 5.573039 l 4.214129,16.398449 h 0.229016 l 4.06144,-16.398449 h 5.64938 L 92.981093,35.5788 H 87.224834 L 82.827497,19.730023 H 82.506853 L 78.109504,35.5788 Z"
       id="path11" /><path
       id="path10"
       style="font-weight:600;font-size:40px;line-height:1.25;font-family:Inter;-inkscape-font-specification:'Inter Semi-Bold';letter-spacing:-3.16717px;white-space:pre;display:inline;fill:#ffffff;stroke-width:1.07491"
       d="m 55.517898,31.608968 q 1.862761,0 3.114774,-1.022984 1.252036,-1.038266 1.862773,-2.778885 0.626007,-1.740619 0.626007,-3.878228 0,-2.152867 -0.626007,-3.893474 -0.610737,-1.755888 -1.862773,-2.794154 -1.252013,-1.038266 -3.114774,-1.038266 -1.908581,0 -3.175875,1.038266 -1.252013,1.038266 -1.878031,2.794154 -0.610737,1.740607 -0.610737,3.893474 0,2.137609 0.610737,3.878228 0.626018,1.740619 1.878031,2.778885 1.267294,1.022984 3.175875,1.022984 z m -0.03054,4.427888 q -3.435441,0 -5.954748,-1.511591 -2.519318,-1.511591 -3.908754,-4.229386 -1.374168,-2.717808 -1.374168,-6.351727 0,-3.633919 1.374168,-6.366996 1.389436,-2.733076 3.908754,-4.244667 2.519307,-1.51158 5.954748,-1.51158 3.435418,0 5.954736,1.51158 2.519319,1.511591 3.893486,4.244667 1.389436,2.733077 1.389436,6.366996 0,3.633919 -1.389436,6.351727 -1.374167,2.717795 -3.893486,4.229386 -2.519318,1.511591 -5.954736,1.511591 z" /><path
       style="font-style:italic;font-size:40px;line-height:1.25;font-family:Georgia;-inkscape-font-specification:'Georgia Italic';letter-spacing:-2.13097px;white-space:pre;fill:#ffffff;stroke-width:1.17456"
       d="m 144.79116,12.389433 c -0.55058,0 -1.29971,0.129648 -2.24792,0.389637 -0.94822,0.259989 -2.01877,0.657931 -3.21169,1.193214 l -0.34417,1.468132 c 0.29058,-0.07646 0.71085,-0.168326 1.26143,-0.275434 0.56587,-0.107003 1.01745,-0.160716 1.35392,-0.160716 0.87175,0 1.44503,0.145564 1.72031,0.43615 0.29057,0.275283 0.43563,0.841116 0.43563,1.697572 0,0.428221 -0.0611,0.948364 -0.18345,1.5601 -0.10712,0.611747 -0.22182,1.185027 -0.34417,1.720311 l -2.43137,9.749793 c -0.13766,0.581161 -0.23698,1.063049 -0.29817,1.445393 -0.0612,0.382343 -0.092,0.749464 -0.092,1.101222 0,0.932919 0.30603,1.720311 0.91778,2.362643 0.61174,0.62704 1.5293,0.940519 2.75279,0.940519 0.59646,0 1.3153,-0.114754 2.15647,-0.34417 0.84116,-0.214111 1.96538,-0.604089 3.3724,-1.169958 l 0.34417,-1.46812 c -0.29058,0.10712 -0.71136,0.198971 -1.26194,0.275435 -0.53528,0.07646 -0.94811,0.114754 -1.23868,0.114754 -0.87175,0 -1.50665,-0.160445 -1.90428,-0.481617 -0.38235,-0.321161 -0.57361,-0.917815 -0.57361,-1.789563 0,-0.367051 0.0536,-0.833528 0.16071,-1.399397 0.12236,-0.581161 0.25996,-1.16984 0.4129,-1.766294 l 2.45463,-9.749794 c 0.12238,-0.474112 0.21424,-0.948541 0.27544,-1.422653 0.0612,-0.474112 0.0915,-0.84868 0.0915,-1.123962 0,-1.009383 -0.28266,-1.812185 -0.84853,-2.408639 -0.56587,-0.596454 -1.47598,-0.894523 -2.73007,-0.894523 z"
       id="path8" /><path
       style="font-style:italic;font-size:40px;line-height:1.25;font-family:Georgia;-inkscape-font-specification:'Georgia Italic';letter-spacing:-2.13097px;white-space:pre;fill:#ffffff;stroke-width:1.17456"
       d="m 108.55802,12.389433 c -2.55407,0 -4.7106,0.718327 -6.46938,2.155944 -1.74349,1.422324 -2.615347,3.112366 -2.615347,5.069973 0,0.917627 0.16842,1.71297 0.50489,2.3859 0.336467,0.672919 0.780087,1.254162 1.330657,1.743567 0.45882,0.428234 1.07034,0.833599 1.83503,1.215942 0.7647,0.367051 1.42988,0.642262 1.99575,0.825788 1.57526,0.51999 2.76057,1.093259 3.55585,1.72031 0.79528,0.611748 1.19322,1.437923 1.19322,2.477892 0,1.407019 -0.42822,2.523288 -1.28468,3.349146 -0.84116,0.82587 -2.0881,1.238682 -3.73983,1.238682 -0.76468,0 -1.35335,-0.106768 -1.76629,-0.320914 -0.39764,-0.229404 -0.71112,-0.474335 -0.94052,-0.734325 -0.12236,-0.351746 -0.27535,-0.802825 -0.45888,-1.353401 -0.16823,-0.550576 -0.36694,-1.0245 -0.59635,-1.422136 -0.21411,-0.382343 -0.51217,-0.711221 -0.89452,-0.986503 -0.367047,-0.290587 -0.856367,-0.43615 -1.468117,-0.43615 -0.64233,0 -1.18533,0.267777 -1.62885,0.80306 -0.44353,0.535271 -0.66559,1.109068 -0.66559,1.720815 0,1.299971 0.74965,2.355138 2.24844,3.165704 1.514097,0.795284 3.402847,1.192685 5.666327,1.192685 2.72229,0 4.97817,-0.726278 6.76754,-2.179188 1.78937,-1.468203 2.68407,-3.364404 2.68407,-5.689062 0,-1.422324 -0.47444,-2.615609 -1.42265,-3.579102 -0.93292,-0.963505 -2.43915,-1.819961 -4.5191,-2.569355 -1.60585,-0.581162 -2.76036,-1.139032 -3.46388,-1.674315 -0.6882,-0.550576 -1.03249,-1.361329 -1.03249,-2.431895 0,-1.101152 0.38253,-2.049517 1.14722,-2.84479 0.77998,-0.810577 1.91908,-1.215942 3.41787,-1.215942 0.38234,0 0.68838,0.02337 0.91778,0.06918 0.2294,0.04593 0.4892,0.129824 0.77979,0.252179 0.18353,0.458819 0.35195,0.925296 0.50489,1.399396 0.15294,0.474112 0.35165,0.917733 0.59635,1.330673 0.24469,0.41293 0.55071,0.741807 0.91776,0.986503 0.36705,0.244697 0.83353,0.366898 1.3994,0.366898 0.68822,0 1.23866,-0.252354 1.65158,-0.757052 0.42823,-0.51999 0.64234,-1.093787 0.64234,-1.720827 0,-0.764699 -0.25237,-1.383658 -0.75706,-1.85777 -0.5047,-0.489405 -1.11623,-0.856526 -1.83503,-1.101222 -0.82587,-0.275306 -1.58296,-0.443679 -2.27118,-0.504874 -0.68822,-0.06119 -1.33056,-0.0915 -1.92701,-0.0915 z"
       id="path7" /><path
       style="font-style:italic;font-size:40px;line-height:1.25;font-family:Georgia;-inkscape-font-specification:'Georgia Italic';letter-spacing:-2.13097px;white-space:pre;fill:#ffffff;stroke-width:1.17456"
       d="m 148.62245,0.78135289 c -0.77999,0 -1.45313,0.31347891 -2.01899,0.94051881 -0.56587,0.62704 -0.84853,1.3612823 -0.84853,2.2024449 0,0.7952843 0.28266,1.5061645 0.84853,2.1332045 0.56586,0.6117472 1.239,0.9177793 2.01899,0.9177793 0.84116,0 1.5446,-0.3214306 2.11047,-0.9637752 0.56587,-0.6576255 0.84852,-1.4221598 0.84852,-2.293908 0,-0.7799797 -0.27521,-1.4605797 -0.82578,-2.0417413 -0.55058,-0.5964544 -1.26146,-0.89452301 -2.13321,-0.89452301 z"
       id="path4" /><path
       style="font-style:italic;font-size:40px;line-height:1.25;font-family:Georgia;-inkscape-font-specification:'Georgia Italic';letter-spacing:-2.13097px;white-space:pre;fill:#ffffff;stroke-width:1.17456"
       d="m 126.52765,0.02430063 -8.51111,0.5276133 -0.32143,1.39939677 c 0.50469,0.061195 1.00943,0.1147547 1.51412,0.1607153 0.5047,0.045925 0.90262,0.1372711 1.19321,0.274918 0.33645,0.1529398 0.59627,0.382461 0.7798,0.6883287 0.18355,0.2905866 0.27543,0.7113618 0.27543,1.2619377 0,0.2752939 -0.0308,0.535107 -0.092,0.7798036 -0.0459,0.2446965 -0.10701,0.5427651 -0.18345,0.8945112 L 114.36924,35.53634 h 4.26692 l 3.87676,-16.838252 c 1.02468,-1.131738 2.10268,-2.011555 3.23443,-2.638595 1.14703,-0.62704 2.21016,-0.940507 3.18896,-0.940507 0.96351,0 1.68978,0.298585 2.17919,0.895028 0.4894,0.596454 0.73432,1.406702 0.73432,2.431379 0,0.321172 -0.0537,0.749394 -0.16071,1.284677 -0.0917,0.535283 -0.22141,1.131937 -0.38964,1.789551 l -2.24844,8.556591 c -0.13767,0.550576 -0.23698,1.032464 -0.29817,1.445393 -0.0612,0.397648 -0.092,0.764769 -0.092,1.101222 0,0.932919 0.30602,1.720827 0.91777,2.36316 0.61174,0.62704 1.5293,0.940507 2.7528,0.940507 0.77998,0 1.55248,-0.130165 2.31717,-0.390154 0.76469,-0.244696 1.83525,-0.64211 3.21169,-1.192686 l 0.34417,-1.468649 c -0.29059,0.107003 -0.71137,0.214311 -1.26194,0.321431 -0.53528,0.09173 -0.94811,0.137459 -1.23868,0.137459 -0.87175,0 -1.49869,-0.153022 -1.88103,-0.45889 -0.38234,-0.321172 -0.57361,-0.917286 -0.57361,-1.789034 0,-0.351758 0.0686,-0.841092 0.2062,-1.468132 0.13764,-0.642333 0.2678,-1.208166 0.39015,-1.697571 l 1.92701,-7.36441 c 0.18357,-0.688223 0.3137,-1.383693 0.39017,-2.087209 0.0917,-0.703504 0.13746,-1.192838 0.13746,-1.46812 0,-1.376435 -0.41283,-2.485256 -1.2387,-3.326419 -0.82586,-0.856455 -1.97292,-1.284677 -3.44112,-1.284677 -1.57527,0 -2.98215,0.328349 -4.22093,0.985986 -1.2388,0.642333 -2.6462,1.598661 -4.22145,2.868046 h -0.0915 L 126.7571,0.36845908 Z"
       id="path3" /><path
       style="font-style:italic;font-size:40px;line-height:1.25;font-family:Georgia;-inkscape-font-specification:'Georgia Italic';letter-spacing:-2.13097px;white-space:pre;fill:#ffffff;stroke-width:1.17456"
       d="m 168.07346,0.00104431 c -1.16232,0 -2.37794,0.28317517 -3.64732,0.84904395 -1.25409,0.55057594 -2.37831,1.31512194 -3.37241,2.29391974 -1.00939,0.9940907 -1.91154,2.202257 -2.70681,3.6245812 -0.79528,1.4223125 -1.3765,3.0204569 -1.74355,4.7945388 l -0.32143,1.560112 h -4.42713 l -0.48213,2.087726 h 4.47362 l -4.22093,19.8205 c -0.61174,2.783466 -1.33855,4.924575 -2.17971,6.423375 -0.82586,1.498788 -1.82735,2.294166 -3.00498,2.3859 -0.19882,-0.321173 -0.42834,-0.703175 -0.68833,-1.146702 -0.27528,-0.443503 -0.52021,-0.795237 -0.73432,-1.055226 -0.27529,-0.321173 -0.58877,-0.588938 -0.94052,-0.803048 -0.36705,-0.21417 -0.78731,-0.321431 -1.26142,-0.321431 -0.7494,0 -1.32318,0.252366 -1.72082,0.757064 -0.39764,0.504697 -0.59635,1.08593 -0.59635,1.743555 0,0.77998 0.32143,1.422324 0.96377,1.927022 0.62704,0.51999 1.61314,0.779792 2.95899,0.779792 2.447,0 4.82509,-1.078002 7.13444,-3.234427 2.30937,-2.156414 3.82355,-4.932433 4.54236,-8.327657 l 4.03749,-18.948717 h 8.14162 l -3.55586,15.324136 c -0.0766,0.397636 -0.13753,0.75731 -0.18346,1.078483 -0.0459,0.305867 -0.0687,0.634745 -0.0687,0.986502 0,1.101152 0.33633,1.949644 1.00924,2.546099 0.67293,0.581161 1.73604,0.871783 3.18895,0.871783 1.28468,0 2.40095,-0.15301 3.34915,-0.458889 0.94821,-0.290575 1.95769,-0.64231 3.02824,-1.055239 l 0.39016,-1.674315 c -0.39764,0.15294 -0.95603,0.282647 -1.67484,0.38965 -0.7188,0.09173 -1.27719,0.137975 -1.67483,0.137975 -1.10115,0 -1.86569,-0.191265 -2.29392,-0.573609 -0.41294,-0.397636 -0.61959,-1.017123 -0.61959,-1.858286 0,-0.382344 0.0463,-0.841374 0.13798,-1.376657 0.0917,-0.550576 0.20651,-1.11641 0.34415,-1.697571 l 2.93626,-12.640062 h 6.35465 l 0.48163,-2.087726 h -6.40065 l 1.56011,-6.7215487 h -4.12945 l -1.60559,6.7215487 h -8.27908 l 0.50436,-2.431895 c 0.65762,-3.1352236 1.39186,-5.3757008 2.20244,-6.7215493 0.81057,-1.3458485 1.74353,-2.0412832 2.79881,-2.0872086 0.27528,0.412929 0.5048,0.7874969 0.68833,1.1239619 0.18352,0.3364651 0.42792,0.6956227 0.73379,1.0779662 0.27528,0.336465 0.58928,0.6116767 0.94104,0.8257876 0.35175,0.1988651 0.76457,0.2986911 1.23868,0.2986911 0.79527,0 1.37651,-0.2523664 1.74357,-0.757064 0.38234,-0.5046976 0.57309,-1.0859179 0.57309,-1.7435552 0,-0.7799797 -0.32093,-1.4223242 -0.96326,-1.92702181 -0.62703,-0.51999039 -1.61366,-0.78030858 -2.95951,-0.78030858 z"
       id="path1" /></g></svg>
